<?xml version="1.0" encoding="UTF-8"?>
<!DOCTYPE svg PUBLIC "-//W3C//DTD SVG 1.1//EN" "http://www.w3.org/Graphics/SVG/1.1/DTD/svg11.dtd">
<!-- Creator: CorelDRAW X7 -->
<svg xmlns="http://www.w3.org/2000/svg" xml:space="preserve" width="297mm" height="210mm" version="1.1" style="shape-rendering:geometricPrecision; text-rendering:geometricPrecision; image-rendering:optimizeQuality; fill-rule:evenodd; clip-rule:evenodd"
viewBox="0 0 29700 21000"
 xmlns:xlink="http://www.w3.org/1999/xlink">
 <defs>
  <style type="text/css">
   <![CDATA[
    .fil0 {fill:#158CBA}
    .fil1 {fill:#52B6DE}
    .fil2 {fill:#158CBA;fill-rule:nonzero}
   ]]>
  </style>
 </defs>
 <g id="Layer_x0020_1">
  <metadata id="CorelCorpID_0Corel-Layer"/>
  <g id="_628282984">
   <g>
    <polygon class="fil0" points="13460,10758 14513,11824 14834,12149 15158,11828 15680,11313 13012,8614 12166,9449 "/>
    <polygon class="fil0" points="14020,7617 15354,8967 16688,10317 17534,9481 16240,8172 15187,7106 14866,6782 14542,7102 "/>
   </g>
   <g>
    <polygon class="fil1" points="14238,11708 13459,10920 12671,11699 "/>
    <polygon class="fil1" points="13053,8492 15801,11274 15841,11314 15801,11355 15435,11716 16195,11720 17065,10861 16687,10479 16647,10438 13899,7657 13859,7616 13899,7576 14265,7215 13505,7211 12635,8070 13013,8452 "/>
    <polygon class="fil1" points="15462,7222 16241,8010 17029,7232 "/>
   </g>
  </g>
  <path class="fil2" d="M10407 13166l130 -21c8,52 28,92 61,120 34,28 81,42 141,42 60,0 105,-12 135,-37 29,-24 44,-53 44,-87 0,-29 -13,-53 -40,-70 -18,-11 -63,-26 -134,-44 -97,-25 -164,-46 -201,-63 -37,-18 -65,-43 -85,-74 -19,-31 -29,-66 -29,-104 0,-35 8,-67 24,-96 16,-30 38,-54 65,-74 20,-15 48,-27 83,-38 36,-10 74,-15 114,-15 61,0 114,8 160,26 46,17 80,41 102,71 22,31 37,71 46,121l-129 18c-6,-40 -23,-72 -51,-95 -28,-22 -67,-34 -118,-34 -61,0 -104,10 -130,30 -25,20 -38,44 -38,70 0,17 5,33 16,47 10,14 27,25 50,35 13,5 52,16 116,33 93,25 158,46 195,61 37,16 66,39 87,69 21,30 32,68 32,113 0,43 -13,85 -39,123 -26,39 -63,69 -111,90 -48,21 -103,32 -164,32 -101,0 -178,-21 -231,-63 -53,-42 -86,-104 -101,-186z"/>
  <path id="1" class="fil2" d="M11494 13281l18 116c-37,8 -70,12 -99,12 -47,0 -84,-8 -111,-23 -26,-15 -44,-35 -55,-59 -11,-25 -16,-77 -16,-156l0 -448 -98 0 0 -102 98 0 0 -192 132 -79 0 271 131 0 0 102 -131 0 0 455c0,38 2,62 7,73 4,11 12,19 22,26 11,6 26,9 45,9 14,0 34,-2 57,-5z"/>
  <path id="2" class="fil2" d="M12155 13147l136 18c-21,79 -61,141 -119,184 -58,44 -132,66 -222,66 -113,0 -203,-35 -269,-105 -67,-70 -100,-168 -100,-294 0,-130 33,-231 101,-303 67,-73 154,-108 261,-108 104,0 188,35 254,105 66,71 99,170 99,298 0,8 -1,20 -1,35l-579 0c5,86 29,151 72,196 43,45 98,68 162,68 48,0 90,-13 124,-38 34,-26 61,-66 81,-122zm-432 -211l433 0c-6,-66 -22,-115 -49,-147 -42,-51 -97,-77 -163,-77 -61,0 -111,21 -153,61 -40,40 -63,95 -68,163z"/>
  <path id="3" class="fil2" d="M12988 13147l136 18c-21,79 -61,141 -119,184 -58,44 -132,66 -222,66 -113,0 -203,-35 -269,-105 -67,-70 -100,-168 -100,-294 0,-130 34,-231 101,-303 67,-73 154,-108 261,-108 104,0 188,35 254,105 66,71 99,170 99,298 0,8 -1,20 -1,35l-579 0c5,86 29,151 72,196 43,45 98,68 162,68 48,0 90,-13 124,-38 34,-26 61,-66 81,-122zm-432 -211l433 0c-5,-66 -22,-115 -49,-147 -42,-51 -97,-77 -163,-77 -61,0 -111,21 -152,61 -41,40 -64,95 -69,163z"/>
  <path id="4" class="fil2" d="M13291 13398l0 -777 118 0 0 110c24,-38 57,-69 97,-92 40,-23 86,-34 138,-34 57,0 105,12 141,35 37,24 63,57 78,100 62,-90 142,-135 241,-135 77,0 137,21 178,63 42,43 63,109 63,197l0 533 -132 0 0 -489c0,-52 -4,-90 -13,-113 -8,-24 -24,-42 -46,-56 -23,-15 -49,-22 -80,-22 -54,0 -100,19 -136,55 -36,36 -54,94 -54,174l0 451 -132 0 0 -504c0,-59 -11,-102 -32,-132 -22,-29 -57,-44 -106,-44 -37,0 -71,10 -102,30 -32,19 -54,48 -69,85 -14,38 -21,92 -21,162l0 403 -131 0z"/>
  <path id="5" class="fil2" d="M14538 13398l0 -777 119 0 0 110c24,-38 56,-69 97,-92 40,-23 86,-34 138,-34 57,0 104,12 141,35 37,24 63,57 78,100 62,-90 142,-135 241,-135 77,0 137,21 178,63 42,43 63,109 63,197l0 533 -132 0 0 -489c0,-52 -5,-90 -13,-113 -9,-24 -24,-42 -47,-56 -22,-15 -49,-22 -79,-22 -55,0 -100,19 -136,55 -37,36 -55,94 -55,174l0 451 -131 0 0 -504c0,-59 -11,-102 -33,-132 -21,-29 -56,-44 -105,-44 -37,0 -71,10 -103,30 -31,19 -54,48 -68,85 -14,38 -21,92 -21,162l0 403 -132 0z"/>
  <path id="6" class="fil2" d="M16294 13301c-49,42 -96,71 -142,88 -45,17 -93,26 -145,26 -85,0 -151,-21 -197,-63 -46,-41 -69,-94 -69,-159 0,-38 9,-72 26,-104 18,-31 40,-56 68,-75 28,-19 60,-34 95,-43 26,-7 65,-14 117,-20 107,-13 185,-28 236,-45 0,-18 0,-30 0,-35 0,-53 -12,-91 -37,-113 -34,-29 -84,-44 -150,-44 -63,0 -109,11 -138,33 -30,21 -51,60 -66,115l-128 -18c11,-55 30,-100 57,-134 27,-34 66,-60 117,-78 51,-18 110,-27 177,-27 66,0 121,7 162,23 42,16 72,35 92,59 19,24 33,54 41,90 4,22 7,63 7,121l0 175c0,122 2,199 8,232 5,32 16,63 32,93l-138 0c-13,-27 -21,-60 -25,-97zm-11 -292c-48,19 -120,36 -215,49 -55,8 -93,17 -116,27 -22,9 -39,24 -52,42 -12,19 -18,39 -18,62 0,35 13,64 40,88 27,23 65,35 117,35 50,0 96,-11 135,-34 40,-22 69,-52 87,-90 15,-30 22,-73 22,-131l0 -48z"/>
  <polygon id="7" class="fil2" points="16620,13398 16620,12326 16751,12326 16751,12937 17063,12621 17233,12621 16937,12910 17263,13398 17101,13398 16843,13001 16751,13090 16751,13398 "/>
  <path id="8" class="fil2" d="M17898 13147l137 18c-22,79 -61,141 -119,184 -58,44 -132,66 -222,66 -114,0 -203,-35 -270,-105 -66,-70 -99,-168 -99,-294 0,-130 33,-231 100,-303 67,-73 154,-108 262,-108 103,0 188,35 253,105 66,71 99,170 99,298 0,8 0,20 -1,35l-579 0c5,86 29,151 73,196 43,45 97,68 162,68 48,0 89,-13 123,-38 34,-26 61,-66 81,-122zm-431 -211l433 0c-6,-66 -23,-115 -50,-147 -42,-51 -96,-77 -163,-77 -60,0 -111,21 -152,61 -41,40 -64,95 -68,163z"/>
  <path id="9" class="fil2" d="M18200 13398l0 -777 118 0 0 119c30,-55 58,-92 84,-109 25,-18 54,-26 84,-26 45,0 90,14 136,41l-47 122c-32,-18 -64,-27 -96,-27 -29,0 -54,9 -77,26 -23,17 -39,41 -49,72 -14,46 -22,98 -22,153l0 406 -131 0z"/>
  <path id="10" class="fil2" d="M18647 13166l131 -21c7,52 27,92 61,120 33,28 80,42 140,42 61,0 106,-12 135,-37 29,-24 44,-53 44,-87 0,-29 -13,-53 -39,-70 -19,-11 -64,-26 -135,-44 -96,-25 -163,-46 -201,-63 -37,-18 -65,-43 -84,-74 -19,-31 -29,-66 -29,-104 0,-35 8,-67 24,-96 16,-30 37,-54 64,-74 21,-15 49,-27 84,-38 35,-10 73,-15 113,-15 61,0 115,8 161,26 46,17 80,41 102,71 22,31 37,71 45,121l-129 18c-6,-40 -23,-72 -50,-95 -28,-22 -68,-34 -119,-34 -60,0 -103,10 -129,30 -26,20 -39,44 -39,70 0,17 5,33 16,47 11,14 28,25 51,35 13,5 51,16 116,33 93,25 157,46 194,61 37,16 66,39 87,69 21,30 32,68 32,113 0,43 -13,85 -38,123 -26,39 -63,69 -111,90 -49,21 -103,32 -164,32 -101,0 -178,-21 -231,-63 -53,-42 -87,-104 -102,-186z"/>
  <path class="fil2" d="M11730 14212l-6 -51c12,3 22,5 31,5 13,0 22,-2 30,-6 7,-4 13,-10 18,-17 3,-6 9,-19 17,-41 1,-3 2,-8 4,-14l-123 -325 59 0 68 187c9,24 16,49 23,75 7,-24 14,-49 23,-73l69 -189 55 0 -123 330c-13,35 -23,60 -30,73 -10,18 -22,31 -34,40 -13,8 -28,12 -45,12 -11,0 -23,-2 -36,-6z"/>
  <path id="1" class="fil2" d="M12024 13925c0,-59 17,-104 50,-133 28,-23 62,-35 102,-35 44,0 81,14 109,43 28,29 42,70 42,121 0,41 -6,74 -18,98 -13,24 -31,42 -55,55 -24,14 -50,20 -78,20 -45,0 -82,-14 -110,-43 -28,-29 -42,-71 -42,-126zm56 1c0,41 9,72 27,92 19,21 41,31 69,31 27,0 50,-10 68,-31 18,-20 27,-52 27,-94 0,-40 -9,-70 -27,-91 -18,-21 -41,-31 -68,-31 -28,0 -50,10 -69,31 -18,20 -27,51 -27,93z"/>
  <path id="2" class="fil2" d="M12603 14087l0 -48c-25,37 -59,55 -102,55 -19,0 -37,-3 -53,-11 -17,-7 -29,-16 -37,-27 -8,-11 -14,-25 -17,-41 -2,-11 -3,-28 -3,-51l0 -201 54 0 0 180c0,28 2,48 4,58 3,14 11,25 22,33 11,9 25,13 41,13 16,0 32,-4 46,-13 15,-8 25,-20 31,-34 6,-15 9,-36 9,-63l0 -174 55 0 0 324 -50 0z"/>
  <path id="3" class="fil2" d="M12912 14087l0 -324 49 0 0 50c13,-23 24,-38 35,-45 11,-8 22,-11 35,-11 19,0 38,5 57,17l-20 51c-13,-8 -27,-12 -40,-12 -12,0 -22,4 -32,11 -9,7 -16,17 -20,30 -6,20 -9,41 -9,64l0 169 -55 0z"/>
  <path id="4" class="fil2" d="M13341 13983l57 7c-9,33 -26,59 -50,77 -24,18 -55,27 -92,27 -47,0 -85,-14 -112,-43 -28,-29 -42,-70 -42,-123 0,-54 14,-96 42,-126 28,-30 64,-45 109,-45 43,0 78,14 106,44 27,29 41,71 41,124 0,3 0,8 -1,14l-241 0c2,36 12,63 30,82 18,19 41,28 68,28 20,0 37,-5 51,-16 14,-10 26,-27 34,-50zm-180 -88l181 0c-3,-28 -10,-48 -21,-62 -17,-21 -40,-31 -68,-31 -25,0 -46,8 -63,25 -17,17 -27,39 -29,68z"/>
  <path id="5" class="fil2" d="M13525 14087l-97 -324 57 0 52 187 18 70c1,-3 6,-26 17,-67l51 -190 56 0 49 189 16 61 19 -62 56 -188 53 0 -102 324 -56 0 -52 -193 -13 -56 -65 249 -59 0z"/>
  <path id="6" class="fil2" d="M14129 14047c-20,17 -40,29 -58,37 -19,7 -39,10 -61,10 -36,0 -63,-8 -82,-26 -19,-17 -29,-39 -29,-66 0,-16 4,-30 11,-44 7,-13 17,-23 28,-31 12,-8 25,-14 40,-18 11,-3 27,-5 49,-8 44,-5 77,-12 98,-19 0,-7 0,-12 0,-14 0,-22 -5,-38 -16,-47 -14,-13 -34,-19 -62,-19 -26,0 -45,5 -57,14 -13,9 -22,25 -28,48l-53 -8c4,-23 12,-41 24,-55 11,-14 27,-25 48,-33 21,-8 46,-11 74,-11 28,0 50,3 68,9 17,7 30,15 38,25 8,10 14,22 17,37 2,10 3,27 3,51l0 73c0,50 1,83 3,96 2,14 7,27 13,39l-57 0c-5,-11 -9,-25 -11,-40zm-4 -122c-20,8 -50,15 -90,21 -22,3 -38,7 -48,11 -9,4 -16,10 -21,17 -6,8 -8,17 -8,26 0,15 5,27 16,37 12,9 28,14 49,14 21,0 40,-4 57,-14 16,-9 28,-21 36,-37 6,-13 9,-31 9,-55l0 -20z"/>
  <path id="7" class="fil2" d="M14264 14087l0 -324 50 0 0 50c12,-23 24,-38 35,-45 10,-8 22,-11 35,-11 18,0 37,5 56,17l-19 51c-14,-8 -27,-12 -40,-12 -12,0 -23,4 -32,11 -10,7 -17,17 -21,30 -6,20 -9,41 -9,64l0 169 -55 0z"/>
  <path id="8" class="fil2" d="M14682 14087l0 -41c-21,32 -51,48 -91,48 -25,0 -49,-7 -71,-21 -21,-14 -38,-34 -50,-59 -12,-26 -18,-55 -18,-88 0,-33 6,-62 16,-88 11,-26 27,-46 49,-60 21,-14 45,-21 72,-21 19,0 37,4 52,12 15,8 28,19 37,32l0 -160 55 0 0 446 -51 0zm-174 -161c0,41 9,72 27,93 17,20 38,30 62,30 24,0 44,-9 61,-29 17,-20 25,-49 25,-90 0,-44 -8,-76 -26,-97 -17,-21 -38,-31 -63,-31 -24,0 -45,10 -61,30 -16,20 -25,51 -25,94z"/>
  <path id="9" class="fil2" d="M15006 14087l0 -281 -48 0 0 -43 48 0 0 -34c0,-22 2,-38 6,-48 5,-14 15,-26 28,-35 13,-9 32,-13 56,-13 15,0 32,2 51,6l-8 48c-12,-2 -22,-3 -33,-3 -16,0 -28,3 -35,10 -7,7 -10,20 -10,40l0 29 63 0 0 43 -63 0 0 281 -55 0z"/>
  <path id="10" class="fil2" d="M15146 13925c0,-59 17,-104 50,-133 28,-23 62,-35 102,-35 44,0 81,14 109,43 28,29 42,70 42,121 0,41 -6,74 -18,98 -13,24 -31,42 -55,55 -24,14 -50,20 -78,20 -45,0 -82,-14 -110,-43 -28,-29 -42,-71 -42,-126zm56 1c0,41 9,72 27,92 19,21 41,31 69,31 27,0 50,-10 68,-31 18,-20 27,-52 27,-94 0,-40 -9,-70 -27,-91 -18,-21 -41,-31 -68,-31 -28,0 -50,10 -69,31 -18,20 -27,51 -27,93z"/>
  <path id="11" class="fil2" d="M15513 14087l0 -324 49 0 0 50c13,-23 25,-38 35,-45 11,-8 23,-11 36,-11 18,0 37,5 56,17l-19 51c-14,-8 -27,-12 -40,-12 -12,0 -23,4 -32,11 -10,7 -17,17 -21,30 -6,20 -9,41 -9,64l0 169 -55 0z"/>
  <path id="12" class="fil2" d="M15895 14087l0 -324 49 0 0 46c10,-16 24,-28 41,-38 17,-10 36,-14 57,-14 24,0 44,5 59,14 15,10 26,24 32,42 26,-38 60,-56 101,-56 32,0 57,8 74,26 18,18 26,45 26,82l0 222 -55 0 0 -204c0,-21 -1,-37 -5,-47 -4,-10 -10,-17 -19,-23 -10,-6 -21,-9 -33,-9 -23,0 -42,8 -57,23 -15,15 -23,39 -23,72l0 188 -55 0 0 -210c0,-24 -4,-42 -13,-55 -9,-12 -24,-18 -44,-18 -16,0 -30,4 -43,12 -13,8 -22,20 -28,36 -6,15 -9,38 -9,67l0 168 -55 0z"/>
  <path id="13" class="fil2" d="M16626 14047c-20,17 -40,29 -58,37 -19,7 -39,10 -61,10 -36,0 -63,-8 -82,-26 -19,-17 -29,-39 -29,-66 0,-16 4,-30 11,-44 7,-13 17,-23 28,-31 12,-8 25,-14 40,-18 11,-3 27,-5 49,-8 44,-5 77,-12 98,-19 0,-7 0,-12 0,-14 0,-22 -5,-38 -16,-47 -14,-13 -35,-19 -62,-19 -26,0 -45,5 -57,14 -13,9 -22,25 -28,48l-54 -8c5,-23 13,-41 25,-55 11,-14 27,-25 48,-33 21,-8 46,-11 74,-11 28,0 50,3 68,9 17,7 30,15 38,25 8,10 14,22 17,37 2,10 3,27 3,51l0 73c0,50 1,83 3,96 2,14 7,27 13,39l-57 0c-5,-11 -9,-25 -11,-40zm-4 -122c-20,8 -50,15 -90,21 -23,3 -39,7 -48,11 -9,4 -16,10 -22,17 -5,8 -7,17 -7,26 0,15 5,27 16,37 12,9 28,14 49,14 21,0 40,-4 57,-14 16,-9 28,-21 36,-37 6,-13 9,-31 9,-55l0 -20z"/>
  <polygon id="14" class="fil2" points="16762,14087 16762,13641 16817,13641 16817,13895 16947,13763 17018,13763 16894,13884 17030,14087 16963,14087 16855,13922 16817,13959 16817,14087 "/>
  <path id="15" class="fil2" d="M17074 13703l0 -62 55 0 0 62 -55 0zm0 384l0 -324 55 0 0 324 -55 0z"/>
  <path id="16" class="fil2" d="M17213 14087l0 -324 49 0 0 46c24,-35 58,-52 103,-52 19,0 37,3 54,10 16,7 28,16 36,28 8,11 14,25 17,40 2,10 3,28 3,53l0 199 -55 0 0 -196c0,-23 -2,-40 -6,-51 -4,-11 -12,-19 -23,-26 -10,-7 -23,-10 -38,-10 -23,0 -43,7 -60,22 -17,15 -25,43 -25,85l0 176 -55 0z"/>
  <path id="17" class="fil2" d="M17550 14114l53 8c2,16 8,28 18,36 14,10 33,15 56,15 26,0 45,-5 59,-15 14,-10 23,-25 28,-43 3,-11 4,-34 4,-70 -24,28 -54,42 -90,42 -44,0 -79,-16 -103,-48 -24,-32 -37,-70 -37,-115 0,-31 6,-60 17,-86 11,-26 27,-46 49,-60 21,-14 46,-21 75,-21 38,0 69,15 94,46l0 -40 51 0 0 280c0,51 -6,86 -16,107 -10,21 -26,38 -48,50 -23,12 -50,18 -83,18 -38,0 -69,-8 -93,-26 -24,-17 -35,-43 -34,-78zm45 -194c0,42 8,73 25,93 17,19 38,29 63,29 26,0 47,-10 64,-29 17,-20 25,-50 25,-91 0,-40 -8,-70 -26,-90 -18,-20 -39,-30 -64,-30 -24,0 -45,10 -62,30 -17,20 -25,49 -25,88z"/>
  <path id="18" class="fil2" d="M18080 13703l0 -62 55 0 0 62 -55 0zm0 384l0 -324 55 0 0 324 -55 0z"/>
  <path id="19" class="fil2" d="M18338 14038l8 49c-16,3 -30,5 -42,5 -20,0 -35,-3 -46,-10 -11,-6 -19,-14 -23,-25 -5,-10 -7,-32 -7,-64l0 -187 -40 0 0 -43 40 0 0 -80 55 -33 0 113 55 0 0 43 -55 0 0 190c0,15 1,25 3,30 2,4 5,8 9,11 5,2 11,4 19,4 6,0 14,-1 24,-3z"/>
 </g>
</svg>
