<?xml version="1.0" encoding="UTF-8"?>
<!DOCTYPE svg PUBLIC "-//W3C//DTD SVG 1.1//EN" "http://www.w3.org/Graphics/SVG/1.1/DTD/svg11.dtd">
<!-- Creator: CorelDRAW X8 -->
<svg xmlns="http://www.w3.org/2000/svg" xml:space="preserve" width="39.2949mm" height="39.2951mm" version="1.1" style="shape-rendering:geometricPrecision; text-rendering:geometricPrecision; image-rendering:optimizeQuality; fill-rule:evenodd; clip-rule:evenodd"
viewBox="0 0 1137 1137"
 xmlns:xlink="http://www.w3.org/1999/xlink">
 <defs>
  <style type="text/css">
   <![CDATA[
    .fil0 {fill:white}
   ]]>
  </style>
 </defs>
 <g id="Layer_x0020_1">
  <metadata id="CorelCorpID_0Corel-Layer"/>
  <g id="_1444458710752">
   <g>
    <polygon class="fil0" points="274,842 497,1068 565,1137 634,1069 744,960 179,388 0,565 "/>
    <polygon class="fil0" points="393,177 675,463 958,749 1137,572 863,294 640,69 572,0 503,68 "/>
   </g>
   <g>
    <polygon class="fil0" points="439,1043 274,876 107,1041 "/>
    <polygon class="fil0" points="188,362 770,951 778,960 770,968 692,1045 853,1046 1037,864 957,783 949,774 367,185 358,177 367,168 444,92 283,91 99,273 179,354 "/>
    <polygon class="fil0" points="698,93 863,260 1030,95 "/>
   </g>
  </g>
 </g>
</svg>
